<?xml version="1.0" encoding="UTF-8"?>
<svg xmlns="http://www.w3.org/2000/svg" xmlns:xlink="http://www.w3.org/1999/xlink" width="336pt" height="172pt" viewBox="0 0 336 172" version="1.1">
<g id="surface1">
<path style=" stroke:none;fill-rule:nonzero;fill:rgb(79.216003%,43.136597%,41.960144%);fill-opacity:1;" d="M 130.523438 63.875 C 125.394531 63.105469 119.960938 61.539063 116.691406 57.195313 C 113.992188 54.28125 113.527344 50.21875 111.941406 46.75 C 108.769531 57.113281 120.445313 68.195313 130.523438 63.875 "/>
<path style=" stroke:none;fill-rule:nonzero;fill:rgb(79.216003%,43.136597%,41.960144%);fill-opacity:1;" d="M 129.246094 69.902344 C 117.269531 70.28125 106.671875 59.988281 106.117188 48.121094 C 103.816406 53.226563 105.664063 59.492188 108.804688 63.875 C 113.257813 69.9375 122.269531 73.457031 129.246094 69.902344 "/>
<path style=" stroke:none;fill-rule:nonzero;fill:rgb(79.216003%,43.136597%,41.960144%);fill-opacity:1;" d="M 162.289063 74.957031 C 161.585938 74.75 160.679688 74.648438 159.566406 74.648438 C 155.796875 74.648438 152.328125 76.617188 149.15625 80.554688 L 150.472656 75.582031 L 145.597656 75.582031 L 138.414063 102.726563 L 143.289063 102.726563 L 146.933594 88.949219 C 147.695313 86.082031 149.046875 83.851563 150.996094 82.261719 C 152.816406 80.777344 154.980469 80.035156 157.484375 80.035156 C 158.425781 80.035156 159.535156 80.207031 160.808594 80.554688 Z M 162.289063 74.957031 "/>
<path style=" stroke:none;fill-rule:nonzero;fill:rgb(79.216003%,43.136597%,41.960144%);fill-opacity:1;" d="M 142.332031 75.582031 L 134.921875 75.582031 L 118.882813 87.183594 L 121.933594 75.652344 L 117.054688 75.660156 L 109.894531 102.726563 L 114.769531 102.726563 L 117.359375 92.9375 L 122.847656 89.152344 L 129.441406 102.726563 L 136.074219 102.726563 L 127.636719 85.785156 Z M 142.332031 75.582031 "/>
<path style=" stroke:none;fill-rule:nonzero;fill:rgb(79.216003%,43.136597%,41.960144%);fill-opacity:1;" d="M 105.863281 75.582031 L 98.679688 102.726563 L 103.554688 102.726563 L 110.738281 75.582031 Z M 105.863281 75.582031 "/>
<path style=" stroke:none;fill-rule:nonzero;fill:rgb(79.216003%,43.136597%,41.960144%);fill-opacity:1;" d="M 94.578125 65.734375 L 72.515625 96.410156 L 66.835938 65.734375 L 59.574219 65.734375 L 49.785156 102.726563 L 54.953125 102.726563 L 62.902344 72.679688 L 68.539063 102.726563 L 73.152344 102.726563 L 94.902344 72.058594 L 86.785156 102.726563 L 91.953125 102.726563 L 101.742188 65.734375 Z M 94.578125 65.734375 "/>
<path style=" stroke:none;fill-rule:nonzero;fill:rgb(79.216003%,43.136597%,41.960144%);fill-opacity:1;" d="M 232.503906 64.445313 L 193.722656 64.445313 L 191.527344 75.136719 L 230.3125 75.136719 Z M 232.503906 64.445313 "/>
<path style=" stroke:none;fill-rule:nonzero;fill:rgb(79.216003%,43.136597%,41.960144%);fill-opacity:1;" d="M 196.785156 102.609375 L 210.570313 102.609375 L 215.960938 80.253906 L 202.171875 80.253906 Z M 196.785156 102.609375 "/>
<path style=" stroke:none;fill-rule:nonzero;fill:rgb(79.216003%,43.136597%,41.960144%);fill-opacity:1;" d="M 248.515625 64.46875 L 235.984375 64.46875 L 233.71875 75.148438 L 246.25 75.148438 Z M 248.515625 64.46875 "/>
<path style=" stroke:none;fill-rule:nonzero;fill:rgb(79.216003%,43.136597%,41.960144%);fill-opacity:1;" d="M 227.367188 102.835938 L 239.546875 102.835938 L 244.976563 80.242188 L 232.800781 80.242188 Z M 227.367188 102.835938 "/>
<path style=" stroke:none;fill-rule:nonzero;fill:rgb(79.216003%,43.136597%,41.960144%);fill-opacity:1;" d="M 286.214844 75.183594 L 271.847656 75.183594 L 263.605469 81.921875 L 267.742188 64.363281 L 254.617188 64.363281 L 245.554688 102.789063 L 258.683594 102.789063 L 260.597656 94.667969 L 262.371094 94.667969 L 262.453125 94.601563 L 265.53125 102.765625 L 279.492188 102.765625 L 273.132813 85.875 Z M 286.214844 75.183594 "/>
<path style=" stroke:none;fill-rule:nonzero;fill:rgb(79.216003%,43.136597%,41.960144%);fill-opacity:1;" d="M 186.625 88.984375 C 186.148438 91.929688 184.941406 94.367188 182.996094 96.292969 C 180.742188 98.546875 177.78125 99.671875 174.109375 99.671875 C 170.4375 99.671875 167.839844 98.546875 166.3125 96.292969 C 164.988281 94.367188 164.5625 91.929688 165.035156 88.984375 C 165.511719 86.042969 166.71875 83.605469 168.664063 81.679688 C 170.917969 79.425781 173.878906 78.300781 177.550781 78.300781 C 181.222656 78.300781 183.820313 79.425781 185.347656 81.679688 C 186.671875 83.605469 187.097656 86.042969 186.625 88.984375 M 178.285156 73.722656 C 172.980469 73.722656 168.59375 75.230469 165.128906 78.246094 C 161.914063 81.046875 159.960938 84.625 159.257813 88.984375 C 158.554688 93.347656 159.359375 96.925781 161.671875 99.726563 C 164.164063 102.742188 168.066406 104.25 173.371094 104.25 C 178.679688 104.25 183.082031 102.742188 186.585938 99.726563 C 189.761719 96.925781 191.699219 93.347656 192.402344 88.984375 C 193.105469 84.625 192.316406 81.046875 190.042969 78.246094 C 187.511719 75.230469 183.59375 73.722656 178.285156 73.722656 "/>
</g>
</svg>
